<svg xmlns="http://www.w3.org/2000/svg" xmlns:svg="http://www.w3.org/2000/svg" id="svg8" width="476.667" height="123.834" version="1.1" viewBox="0 0 126.118 32.764"><metadata id="metadata5"/><g id="layer1" transform="translate(-33.843835,-104.70709)" style="display:none"><path style="opacity:.18200001;fill:none;stroke:#000;stroke-width:1.16719985px;stroke-linecap:butt;stroke-linejoin:miter;stroke-opacity:1" id="path1444" d="M 33.409118,137.36889 H 159.82837"/><path style="opacity:.18200001;fill:none;stroke:#000;stroke-width:1.16719985px;stroke-linecap:butt;stroke-linejoin:miter;stroke-opacity:1" id="path1446" d="M 33.542051,104.37364 H 160.09424"/></g><g id="layer2" transform="translate(-33.843835,-104.70709)"><path style="fill:#000;fill-opacity:1;stroke:#000;stroke-width:1.28105509px;stroke-linecap:butt;stroke-linejoin:miter;stroke-opacity:1" id="path820" d="m 34.484363,135.62697 v -29.1427 h 7.279098 l 10.537623,18.25169 v -11.45789 l 5.314627,-6.47032 v 24.74892 H 50.336613 L 39.51591,112.81466 v 18.56006 z"/><g id="g828" transform="matrix(4.8417832,0,0,4.8417832,-202.71905,-566.32048)"><path id="path822" d="m 54.948288,144.88584 v -5.80574 h 0.909788 l 1.926429,0.009 0.127079,-0.21632 c 0.761087,1.10697 1.195403,2.37098 0.353714,3.70055 h -2.277576 v 1.27876 z" style="fill:#000;fill-opacity:1;stroke:#000;stroke-width:.26458332px;stroke-linecap:butt;stroke-linejoin:miter;stroke-opacity:1"/><path id="path824" d="m 55.776063,141.92119 v -1.41368 l 0.79092,-0.79913 h 1.105072 c 0.586802,0.90948 0.480242,1.52797 0,2.21281 z" style="fill:#fff;fill-opacity:1;stroke:#000;stroke-width:.33427513px;stroke-linecap:butt;stroke-linejoin:miter;stroke-opacity:1"/></g><path style="fill:#eb4848;fill-opacity:1;stroke:#000;stroke-width:1.28105509px;stroke-linecap:butt;stroke-linejoin:miter;stroke-opacity:1" id="path830" d="M 87.751186,130.89417 V 105.7306 h 3.63607 1.62541 v 1.07308 7.79135 l 6.6232,-8.87833 5.975744,0.0291 -9.178874,14.61284 -0.001,1.68426 8.297044,13.49071 -8.232874,-0.44593 -3.70915,-6.28541 v 7.12362 z"/><path style="fill:#eb4848;fill-opacity:1;stroke:#000;stroke-width:1.28105509px;stroke-linecap:butt;stroke-linejoin:miter;stroke-opacity:1" id="path832" d="m 111.16558,105.91803 v 26.22096 l 4.86891,3.62335 v -27.36082 z"/><path style="fill:#eb4848;fill-opacity:1;stroke:#000;stroke-width:1.28105509px;stroke-linecap:butt;stroke-linejoin:miter;stroke-opacity:1" id="path834" d="m 123.09337,110.70389 v 25.7042 H 139.118 l -3.77454,-4.6438 h -7.44613 l 0.11436,-25.36378 z"/><path style="fill:#eb4848;fill-opacity:1;stroke:#000;stroke-width:1.28105509px;stroke-linecap:butt;stroke-linejoin:miter;stroke-opacity:1" id="path834-8" d="m 142.59125,106.34376 v 27.77678 l 2.60814,2.34342 h 13.41649 l -3.77454,-4.6438 h -7.44614 l 0.11437,-20.15518 z"/><path style="opacity:1;fill:#c92727;fill-opacity:1;fill-rule:evenodd;stroke:none;stroke-width:0;stroke-linecap:round;stroke-linejoin:bevel;stroke-miterlimit:4;stroke-dasharray:none;stroke-dashoffset:0;stroke-opacity:1;paint-order:normal" id="path1454" d="m 113.42252,111.38246 -1.6097,-0.66077 -2.9e-4,-1.85756 -3e-4,-1.85755 0.0828,0.0459 c 0.0455,0.0252 0.77462,0.42482 1.62023,0.88801 l 1.87717,0.84214 3.7e-4,1.63123 c 1.9e-4,0.89718 -0.004,1.63081 -0.0102,1.63031 -0.006,-5e-4 -1.07468,-0.29826 -1.96002,-0.66169 z"/></g><g id="layer3" transform="translate(-33.843835,-104.70709)"><path style="fill:#000;fill-opacity:.11616163;stroke:none;stroke-width:1.28105509px;stroke-linecap:butt;stroke-linejoin:miter;stroke-opacity:1" id="path1475" d="m 142.57891,125.92345 10.50211,10.58704 -7.88163,-0.0484 -2.60814,-2.34343 z"/><path style="fill:#000;fill-opacity:.11616163;stroke:none;stroke-width:1.28105509px;stroke-linecap:butt;stroke-linejoin:miter;stroke-opacity:1" id="path1475-4" d="m 123.12307,124.67442 9.3415,11.83259 -9.3712,-0.0988 z"/><path style="fill:#000;fill-opacity:.11616163;stroke:none;stroke-width:1.28105509px;stroke-linecap:butt;stroke-linejoin:miter;stroke-opacity:1" id="path1475-8" d="m 111.43203,124.87283 4.6123,7.99359 -0.01,2.89592 -4.86891,-3.62335 z"/><path style="fill:#000;fill-opacity:.11616163;stroke:none;stroke-width:1.28105509px;stroke-linecap:butt;stroke-linejoin:miter;stroke-opacity:1" id="path1475-40" d="m 88.089696,120.79532 12.333234,14.02597 -3.494984,-0.12637 -4.4772,-7.05143 -0.10536,7.52481 -4.59418,-4.27408 z"/></g></svg>