<svg xmlns="http://www.w3.org/2000/svg" xmlns:svg="http://www.w3.org/2000/svg" id="svg8" width="507.799" height="95.568" version="1.1" viewBox="0 0 134.355 25.286"><metadata id="metadata5"/><g id="layer1" transform="translate(-15.145625,-120.32935)"><flowRoot id="flowRoot4524" transform="scale(0.26458333)" xml:space="preserve" style="font-style:normal;font-weight:400;font-size:40px;line-height:1.25;font-family:sans-serif;letter-spacing:0;word-spacing:0;fill:#000;fill-opacity:1;stroke:none"><flowRegion id="flowRegion4526"><rect id="rect4528" width="135" height="69.286" x="319.286" y="451.805"/></flowRegion><flowPara id="flowPara4530"/></flowRoot><flowRoot id="flowRoot4532" transform="scale(0.26458333)" xml:space="preserve" style="font-style:normal;font-weight:400;font-size:40px;line-height:1.25;font-family:sans-serif;letter-spacing:0;word-spacing:0;fill:#000;fill-opacity:1;stroke:none"><flowRegion id="flowRegion4534"><rect id="rect4536" width="293.571" height="126.429" x="125.714" y="584.663"/></flowRegion><flowPara id="flowPara4538"/></flowRoot><g style="font-style:normal;font-variant:normal;font-weight:700;font-stretch:normal;font-size:34.68537903px;line-height:1.25;font-family:sans-serif;-inkscape-font-specification:'sans-serif Bold';letter-spacing:0;word-spacing:0;fill:#000;fill-opacity:1;stroke:none;stroke-width:.86713445" id="text4542" aria-label="NPKILL"><path style="font-style:normal;font-variant:normal;font-weight:700;font-stretch:normal;font-family:'xos4 Terminess Powerline';-inkscape-font-specification:'xos4 Terminess Powerline Bold';stroke-width:.86713445" id="path4544" d="M 15.145625,120.32935 H 22.4282 l 9.196367,17.34269 v -17.34269 h 6.181721 v 25.28578 h -7.282575 l -9.196368,-17.34269 v 17.34269 h -6.18172 z"/><path style="font-style:normal;font-variant:normal;font-weight:700;font-stretch:normal;font-family:'xos4 Terminess Powerline';-inkscape-font-specification:'xos4 Terminess Powerline Bold';stroke-width:.86713445" id="path4546" d="m 44.208178,120.32935 h 10.822245 q 4.826823,0 7.401128,2.1509 2.591242,2.13396 2.591242,6.09704 0,3.98001 -2.591242,6.13091 -2.574305,2.13397 -7.401128,2.13397 h -4.3018 v 8.77296 h -6.520445 z m 6.520445,4.72521 v 7.0624 h 3.607415 q 1.896857,0 2.929966,-0.91456 1.03311,-0.93149 1.03311,-2.62511 0,-1.69362 -1.03311,-2.60818 -1.033109,-0.91455 -2.929966,-0.91455 z"/><path style="font-style:normal;font-variant:normal;font-weight:700;font-stretch:normal;font-family:'xos4 Terminess Powerline';-inkscape-font-specification:'xos4 Terminess Powerline Bold';fill:#ce0b10;fill-opacity:1;stroke:none;stroke-width:.86713445;stroke-opacity:1" id="path4548" d="m 69.61251,120.32935 h 6.520444 v 9.23024 l 9.399603,-9.23024 5.491621,2.07887 -10.098273,9.89504 13.430422,13.31187 h -8.163258 l -10.060115,-9.9585 v 9.9585 H 69.61251 Z"/><path style="font-style:normal;font-variant:normal;font-weight:700;font-stretch:normal;font-family:'xos4 Terminess Powerline';-inkscape-font-specification:'xos4 Terminess Powerline Bold';fill:#ce0b10;fill-opacity:1;stroke:none;stroke-width:.86713445;stroke-opacity:1" id="path4550" d="m 96.507228,120.32935 h 6.520442 v 25.28578 h -6.520442 z"/><path style="font-style:normal;font-variant:normal;font-weight:700;font-stretch:normal;font-family:'xos4 Terminess Powerline';-inkscape-font-specification:'xos4 Terminess Powerline Bold';fill:#ce0b10;fill-opacity:1;stroke:none;stroke-width:.86713445;stroke-opacity:1" id="path4552" d="m 109.4465,120.32935 h 6.52044 v 20.35734 h 11.44889 v 4.92844 H 109.4465 Z"/><path style="font-style:normal;font-variant:normal;font-weight:700;font-stretch:normal;font-family:'xos4 Terminess Powerline';-inkscape-font-specification:'xos4 Terminess Powerline Bold';fill:#ce0b10;fill-opacity:1;stroke:none;stroke-width:.86713445;stroke-opacity:1" id="path4554" d="m 131.53133,120.32935 h 6.52044 v 20.35734 h 11.44889 v 4.92844 h -17.96933 z"/></g></g></svg>